<?xml version="1.0" encoding="UTF-8" standalone="no"?>
<!-- Created with Inkscape (http://www.inkscape.org/) -->
<svg
   xmlns:dc="http://purl.org/dc/elements/1.1/"
   xmlns:cc="http://creativecommons.org/ns#"
   xmlns:rdf="http://www.w3.org/1999/02/22-rdf-syntax-ns#"
   xmlns:svg="http://www.w3.org/2000/svg"
   xmlns="http://www.w3.org/2000/svg"
   xmlns:xlink="http://www.w3.org/1999/xlink"
   xmlns:sodipodi="http://sodipodi.sourceforge.net/DTD/sodipodi-0.dtd"
   xmlns:inkscape="http://www.inkscape.org/namespaces/inkscape"
   width="648"
   height="180"
   id="svg2"
   sodipodi:version="0.32"
   inkscape:version="0.46"
   version="1.0"
   sodipodi:docname="banner.inkscape.svg"
   inkscape:output_extension="org.inkscape.output.svg.inkscape"
   inkscape:export-filename="/home/javier/Proyectos/Maemo/ports/snes/drnoksnes/gui/icons/banner.png"
   inkscape:export-xdpi="90"
   inkscape:export-ydpi="90">
  <defs
     id="defs4">
    <inkscape:perspective
       sodipodi:type="inkscape:persp3d"
       inkscape:vp_x="0 : 526.18109 : 1"
       inkscape:vp_y="0 : 1000 : 0"
       inkscape:vp_z="744.09448 : 526.18109 : 1"
       inkscape:persp3d-origin="372.04724 : 350.78739 : 1"
       id="perspective10" />
    <linearGradient
       gradientUnits="userSpaceOnUse"
       xlink:href="#linearGradient3307"
       id="linearGradient3313"
       y2="77.016953"
       x2="119.27966"
       y1="77.016953"
       x1="73.262711" />
    <linearGradient
       gradientUnits="userSpaceOnUse"
       xlink:href="#linearGradient3299"
       id="linearGradient3305"
       y2="77.016953"
       x2="119.27966"
       y1="77.016953"
       x1="73.262711" />
    <linearGradient
       gradientUnits="userSpaceOnUse"
       xlink:href="#linearGradient3291"
       id="linearGradient3297"
       y2="77.016953"
       x2="119.27966"
       y1="77.016953"
       x1="73.262711" />
    <linearGradient
       gradientUnits="userSpaceOnUse"
       xlink:href="#linearGradient3283"
       id="linearGradient3289"
       y2="77.016953"
       x2="119.27966"
       y1="77.016953"
       x1="73.262711" />
    <linearGradient
       id="linearGradient3283">
      <stop
         offset="0"
         style="stop-color:#005dc7;stop-opacity:1"
         id="stop3285" />
      <stop
         offset="1"
         style="stop-color:#005dc7;stop-opacity:0"
         id="stop3287" />
    </linearGradient>
    <linearGradient
       id="linearGradient3291">
      <stop
         offset="0"
         style="stop-color:#00b386;stop-opacity:1"
         id="stop3293" />
      <stop
         offset="1"
         style="stop-color:#00b386;stop-opacity:0"
         id="stop3295" />
    </linearGradient>
    <linearGradient
       id="linearGradient3299">
      <stop
         offset="0"
         style="stop-color:#ffe867;stop-opacity:1"
         id="stop3301" />
      <stop
         offset="1"
         style="stop-color:#ffe867;stop-opacity:0"
         id="stop3303" />
    </linearGradient>
    <linearGradient
       id="linearGradient3307">
      <stop
         offset="0"
         style="stop-color:#ff4e60;stop-opacity:1"
         id="stop3309" />
      <stop
         offset="1"
         style="stop-color:#ff4e60;stop-opacity:0"
         id="stop3311" />
    </linearGradient>
    <inkscape:perspective
       id="perspective2481"
       inkscape:persp3d-origin="64 : 42.666667 : 1"
       inkscape:vp_z="128 : 64 : 1"
       inkscape:vp_y="0 : 1000 : 0"
       inkscape:vp_x="0 : 64 : 1"
       sodipodi:type="inkscape:persp3d" />
  </defs>
  <sodipodi:namedview
     id="base"
     pagecolor="#ffffff"
     bordercolor="#666666"
     borderopacity="1.0"
     inkscape:pageopacity="0.0"
     inkscape:pageshadow="2"
     inkscape:zoom="0.87673137"
     inkscape:cx="267.40157"
     inkscape:cy="89.44225"
     inkscape:document-units="px"
     inkscape:current-layer="layer1"
     showgrid="false"
     inkscape:window-width="1068"
     inkscape:window-height="718"
     inkscape:window-x="1796"
     inkscape:window-y="118" />
  <metadata
     id="metadata7">
    <rdf:RDF>
      <cc:Work
         rdf:about="">
        <dc:format>image/svg+xml</dc:format>
        <dc:type
           rdf:resource="http://purl.org/dc/dcmitype/StillImage" />
      </cc:Work>
    </rdf:RDF>
  </metadata>
  <g
     inkscape:label="Capa 1"
     inkscape:groupmode="layer"
     id="layer1">
    <path
       sodipodi:type="arc"
       style="opacity:0.4;fill:#dfdbce;fill-opacity:1;stroke:#0b0b0b;stroke-opacity:0.19607843"
       id="path2508"
       sodipodi:cx="109.52113"
       sodipodi:cy="91.470421"
       sodipodi:rx="85.79155"
       sodipodi:ry="76.664787"
       d="M 195.31268,91.470421 A 85.79155,76.664787 0 1 1 23.729584,91.470421 A 85.79155,76.664787 0 1 1 195.31268,91.470421 z"
       transform="matrix(0.9267789,0,0,1.0371098,2.4981193,-8.0550207)" />
    <g
       id="g2500"
       transform="translate(39.960361,22.115786)">
      <path
         style="opacity:0.7;fill:#e5dfd2;fill-opacity:1"
         id="path3171"
         transform="matrix(0.4890652,-0.6548594,0.4711844,8.998679e-2,5.297721,67.202483)"
         d="M 105,44 C 105,79.898509 75.226936,109 38.5,109 C 1.7730641,109 -28,79.898509 -28,44 C -28,8.1014913 1.7730641,-21 38.5,-21 C 75.226936,-21 105,8.1014913 105,44 L 105,44 z" />
      <path
         style="opacity:1;fill:url(#linearGradient3297);fill-opacity:1;fill-rule:evenodd;stroke:#0b0b0b;stroke-width:1px;stroke-linecap:butt;stroke-linejoin:miter;stroke-opacity:0.19607843"
         id="path2383"
         transform="matrix(0.9779006,0,0,0.9779006,-70.210358,-7.1517458)"
         d="M 118.77966,77.016953 C 118.77966,89.44804 108.70227,99.525427 96.271186,99.525427 C 83.840099,99.525427 73.762712,89.44804 73.762712,77.016953 C 73.762712,64.585866 83.840099,54.508479 96.271186,54.508479 C 108.70227,54.508479 118.77966,64.585866 118.77966,77.016953 L 118.77966,77.016953 z" />
      <path
         style="opacity:0.4;fill:#e5dfd2;fill-opacity:1"
         id="path3173"
         transform="matrix(0.5635548,-0.5919725,0.4571188,0.1454466,40.171857,101.58554)"
         d="M 105,44 C 105,79.898509 75.226936,109 38.5,109 C 1.7730641,109 -28,79.898509 -28,44 C -28,8.1014913 1.7730641,-21 38.5,-21 C 75.226936,-21 105,8.1014913 105,44 L 105,44 z" />
      <path
         style="fill:url(#linearGradient3305);fill-opacity:1;fill-rule:evenodd;stroke:#0b0b0b;stroke-width:1px;stroke-linecap:butt;stroke-linejoin:miter;stroke-opacity:0.19607843"
         id="path2387"
         transform="matrix(0.9561694,0,0,0.9561694,-36.690798,30.535717)"
         d="M 118.77966,77.016953 C 118.77966,89.44804 108.70227,99.525427 96.271186,99.525427 C 83.840099,99.525427 73.762712,89.44804 73.762712,77.016953 C 73.762712,64.585866 83.840099,54.508479 96.271186,54.508479 C 108.70227,54.508479 118.77966,64.585866 118.77966,77.016953 L 118.77966,77.016953 z" />
      <path
         style="fill:url(#linearGradient3313);fill-opacity:1;fill-rule:evenodd;stroke:#0b0b0b;stroke-width:1px;stroke-linecap:butt;stroke-linejoin:miter;stroke-opacity:0.19607843"
         id="path2397"
         transform="matrix(1.1517496,0,0,1.1517496,-10.293958,-18.584689)"
         d="M 118.77966,77.016953 C 118.77966,89.44804 108.70227,99.525427 96.271186,99.525427 C 83.840099,99.525427 73.762712,89.44804 73.762712,77.016953 C 73.762712,64.585866 83.840099,54.508479 96.271186,54.508479 C 108.70227,54.508479 118.77966,64.585866 118.77966,77.016953 L 118.77966,77.016953 z" />
      <path
         style="fill:url(#linearGradient3289);fill-opacity:1;fill-rule:evenodd;stroke:#0b0b0b;stroke-width:1px;stroke-linecap:butt;stroke-linejoin:miter;stroke-opacity:0.19607843"
         id="path2399"
         transform="matrix(1.1734807,0,0,1.1734807,-50.037163,-61.797716)"
         d="M 118.77966,77.016953 C 118.77966,89.44804 108.70227,99.525427 96.271186,99.525427 C 83.840099,99.525427 73.762712,89.44804 73.762712,77.016953 C 73.762712,64.585866 83.840099,54.508479 96.271186,54.508479 C 108.70227,54.508479 118.77966,64.585866 118.77966,77.016953 L 118.77966,77.016953 z" />
    </g>
    <text
       xml:space="preserve"
       style="font-size:48px;font-style:normal;font-variant:normal;font-weight:normal;font-stretch:normal;fill:#000000;fill-opacity:1;stroke:none;stroke-width:1px;stroke-linecap:butt;stroke-linejoin:miter;stroke-opacity:1;font-family:Droid Sans;-inkscape-font-specification:Droid Sans"
       x="241.85916"
       y="60.439438"
       id="text3280"><tspan
         sodipodi:role="line"
         id="tspan3282"
         x="241.85916"
         y="60.439438">DrNokSnes</tspan></text>
    <text
       xml:space="preserve"
       style="font-size:12px;font-style:normal;font-weight:normal;fill:#505050;fill-opacity:1;stroke:none;stroke-width:1px;stroke-linecap:butt;stroke-linejoin:miter;stroke-opacity:1;font-family:Bitstream Vera Sans"
       x="309.39719"
       y="141.66762"
       id="text3348"><tspan
         sodipodi:role="line"
         id="tspan3350"
         x="309.39719"
         y="141.66762">Based on DrPocketSnes, SquidgeSNES, PocketSNES,</tspan><tspan
         sodipodi:role="line"
         x="309.39719"
         y="156.66762"
         id="tspan3352">snes9x,  OpenSnes9x...</tspan></text>
  </g>
</svg>
